<svg width="1200" height="630" viewBox="0 0 1200 630" fill="none" xmlns="http://www.w3.org/2000/svg">
<rect width="1200" height="630" fill="white"/>
<g clip-path="url(#clip0_134_46)">
<path d="M536.57 600.671H513.07C520.701 561.766 529.868 517.734 535.142 490.593H664.151C667.471 507.576 671.995 530.714 671.995 530.714C675.24 546.703 681.746 578.696 686.023 600.671H536.57Z" fill="white"/>
<path d="M671.178 150.772C672.285 149.744 673.587 148.948 675.006 148.43C676.425 147.912 677.933 147.683 679.442 147.756C681.363 147.704 683.261 148.177 684.934 149.124C686.606 150.07 687.99 151.454 688.935 153.128C692.146 158.799 691.97 169.225 689.775 175.676C688.221 180.238 685.675 187.22 679.586 192.206C678.112 193.455 676.362 194.335 674.481 194.774C672.6 195.213 670.642 195.199 668.767 194.732C665.491 206.031 659.978 216.556 652.555 225.682C647.381 232.343 640.87 237.848 633.442 241.843C633.442 247.225 633.442 251.223 633.442 251.223C633.319 253.295 633.57 255.372 634.182 257.356C635.059 259.889 636.604 262.139 638.653 263.868C643.197 267.529 647.867 269.279 653.619 271.444L658.423 273.34C645.509 283.703 622.492 291.993 598.516 292.064C574.702 291.993 551.835 283.815 538.871 273.551L544.224 271.444C549.976 269.279 554.646 267.529 559.19 263.868C561.239 262.139 562.784 259.889 563.662 257.356C564.274 255.372 564.524 253.295 564.401 251.223C564.401 248.104 564.401 245.598 564.401 243.551C556.175 239.145 548.969 233.056 543.25 225.68C535.724 216.425 530.161 205.734 526.9 194.257C525.061 194.639 523.16 194.593 521.342 194.124C519.524 193.655 517.837 192.775 516.413 191.551C510.363 186.517 507.871 179.518 506.353 174.943C504.208 168.484 504.112 158.056 507.367 152.41C508.326 150.745 509.721 149.372 511.401 148.44C513.081 147.508 514.983 147.05 516.903 147.117C518.413 147.057 519.919 147.298 521.334 147.827C522.749 148.357 524.044 149.163 525.144 150.198C525.144 150.198 512.85 86.1438 600.397 86.1438C681.609 86.1438 671.178 150.772 671.178 150.772Z" fill="white"/>
<path d="M513.618 89.389C507.037 108.246 506.918 128.757 513.277 147.689C514.433 147.342 515.63 147.151 516.837 147.119C518.346 147.053 519.853 147.288 521.27 147.812C522.687 148.335 523.986 149.136 525.09 150.168C527.231 150.335 529.383 150.025 531.391 149.261C533.398 148.498 535.212 147.298 536.702 145.75L536.759 145.689C545.517 135.842 560.975 120.996 571.823 115.256C573.096 114.581 574.729 115.492 575.249 117.637C575.672 119.314 575.785 121.055 575.584 122.773C575.494 123.257 575.54 123.756 575.717 124.215C575.894 124.674 576.195 125.075 576.587 125.373C576.979 125.671 577.445 125.854 577.935 125.902C578.424 125.95 578.918 125.861 579.36 125.644C587.113 121.304 600.902 112.567 610.685 108.405L625.195 110.209C630.098 112.256 634.617 115.123 638.558 118.687C647.364 126.334 655.806 136.825 659.546 146.32C660.791 148.132 662.592 149.489 664.677 150.186C666.762 150.882 669.017 150.879 671.101 150.179L671.129 150.17C672.233 149.138 673.531 148.336 674.948 147.813C676.364 147.289 677.872 147.054 679.38 147.121C680.726 147.154 682.059 147.39 683.335 147.819C690.475 119.06 686.189 81.9103 663.893 64.0522L654.187 53.8695C643.17 39.3485 625.271 31.4711 599.701 30.3491C566.435 29.2235 541.878 44.1161 531.002 57.9841L533.166 60.3453C524.296 68.2139 517.57 78.2077 513.618 89.389Z" fill="#85807F"/>
<path d="M534.069 61.045C543.692 48.8853 558.254 41.2442 573.126 37.4435C583.317 34.9044 593.857 34.0652 604.32 34.9596C613.213 35.5144 621.96 37.4932 630.226 40.8203C638.163 44.0785 645.129 49.3236 650.455 56.052C651.059 57.0154 652.008 57.7125 653.107 58.0013C654.207 58.2901 655.375 58.1491 656.375 57.6069C657.36 57.0222 658.076 56.0726 658.366 54.9638C658.657 53.855 658.499 52.6763 657.927 51.6831C652.65 44.7033 645.871 39.0002 638.093 34.9957C629.104 30.6178 619.418 27.8515 609.474 26.8225C588.532 24.2394 566.691 27.6721 548.224 38.1434C540.457 42.3893 533.575 48.0838 527.949 54.9192C527.17 55.7477 526.736 56.8426 526.736 57.9803C526.736 59.1181 527.17 60.2129 527.949 61.0414C528.765 61.8463 529.864 62.2975 531.009 62.2975C532.155 62.2975 533.254 61.8463 534.069 61.0414V61.045Z" fill="#211715"/>
<path d="M517.444 146.542C510.153 123.83 511.337 98.0185 524.206 77.4745C527.524 72.2028 531.594 67.4445 536.287 63.3504C540.483 59.6687 534.341 53.5663 530.167 57.2281C510.941 74.0941 502.579 100.629 504.543 125.706C505.161 133.569 506.692 141.333 509.105 148.842C510.802 154.127 519.161 151.867 517.452 146.54L517.444 146.542Z" fill="#211715"/>
<path d="M584.243 218.308C588.754 220.667 593.789 221.846 598.879 221.735C604.202 221.952 609.444 220.378 613.767 217.264C614.578 216.452 615.034 215.351 615.034 214.202C615.034 213.054 614.578 211.953 613.767 211.141C612.939 210.36 611.845 209.925 610.707 209.925C609.569 209.925 608.475 210.36 607.647 211.141C608.983 210.091 608.076 210.808 607.732 211.031C607.443 211.212 607.148 211.392 606.845 211.549C606.472 211.746 605.415 212.054 606.664 211.681C606.252 211.803 605.853 211.996 605.442 212.13C604.322 212.479 603.176 212.742 602.016 212.916C602.658 212.812 602.27 212.884 601.852 212.916C601.517 212.949 601.181 212.978 600.844 212.999C600.035 213.051 599.225 213.074 598.413 213.068C597.692 213.068 596.966 213.041 596.235 212.988C595.903 212.967 595.572 212.94 595.24 212.905C595.076 212.889 593.868 212.667 594.919 212.873C593.842 212.687 592.776 212.446 591.724 212.151C591.275 212.016 590.838 211.856 590.399 211.702C589.349 211.342 591.177 212.09 590.231 211.637C589.69 211.376 589.149 211.096 588.608 210.82C588.117 210.533 587.575 210.346 587.012 210.268C586.449 210.191 585.876 210.226 585.326 210.37C584.777 210.514 584.261 210.765 583.808 211.108C583.355 211.452 582.974 211.882 582.687 212.372C582.401 212.863 582.213 213.406 582.136 213.969C582.059 214.532 582.093 215.105 582.237 215.655C582.381 216.205 582.632 216.722 582.976 217.175C583.319 217.628 583.748 218.008 584.239 218.295L584.243 218.308Z" fill="#211715"/>
<path d="M596.403 183.9C597.063 186.305 597.592 188.744 597.986 191.207L597.831 190.056C597.879 190.39 597.888 190.728 597.858 191.065L598.013 189.914C597.991 190.068 597.954 190.219 597.903 190.366L598.339 189.333C598.295 189.435 598.242 189.532 598.181 189.625L598.857 188.748C598.787 188.835 598.708 188.914 598.621 188.983L599.497 188.306C599.313 188.422 599.121 188.524 598.923 188.613L599.957 188.177C599.647 188.311 599.323 188.406 598.99 188.462L600.141 188.306C599.841 188.342 599.538 188.342 599.239 188.306L600.389 188.462C600.047 188.413 599.711 188.33 599.369 188.281C598.811 188.102 598.215 188.075 597.643 188.204C597.071 188.228 596.515 188.405 596.035 188.718C595.044 189.297 594.324 190.247 594.033 191.357C593.742 192.468 593.903 193.648 594.482 194.64C594.757 195.128 595.127 195.556 595.572 195.897C596.016 196.239 596.525 196.486 597.068 196.624C597.901 196.738 598.709 196.949 599.558 196.985C600.859 196.991 602.141 196.681 603.296 196.083C604.038 195.737 604.694 195.231 605.217 194.602C605.74 193.973 606.117 193.235 606.322 192.443C606.59 191.17 606.578 189.854 606.287 188.586C605.893 186.241 605.353 183.896 604.755 181.591C604.604 181.042 604.346 180.529 603.997 180.08C603.648 179.632 603.213 179.256 602.719 178.975C602.224 178.695 601.679 178.514 601.115 178.444C600.551 178.374 599.978 178.416 599.43 178.567C598.336 178.891 597.409 179.627 596.845 180.62C596.282 181.613 596.125 182.786 596.408 183.892L596.403 183.9Z" fill="#211715"/>
<path d="M558.712 163.053C557.502 167.021 558.292 176.139 565.735 176.917C575.573 176.857 576.098 165.829 572.786 160.643C570.074 156.398 562.1 154.632 558.712 163.053Z" fill="#211715"/>
<path d="M637.499 163.053C638.709 167.021 637.921 176.139 630.478 176.917C620.638 176.856 620.114 165.829 623.426 160.643C626.138 156.398 634.106 154.632 637.499 163.053Z" fill="#211715"/>
<path d="M660.828 67.1114C678.499 81.4484 683.223 106.204 681.989 127.841C681.624 134.187 680.676 140.485 679.159 146.657C677.833 152.069 686.176 154.378 687.503 148.959C693.295 125.318 692.383 97.6289 679.824 76.2082C676.475 70.4063 672.114 65.2518 666.948 60.9892C666.121 60.2078 665.026 59.7725 663.888 59.7725C662.75 59.7725 661.655 60.2078 660.828 60.9892C660.024 61.8052 659.574 62.9048 659.574 64.0503C659.574 65.1958 660.024 66.2954 660.828 67.1114Z" fill="#211715"/>
<path d="M623.004 113.943C630.063 117.207 636.397 121.853 641.63 127.607C647.404 133.316 652.062 140.052 655.368 147.469C655.703 148.557 656.44 149.476 657.43 150.038C658.419 150.6 659.586 150.763 660.691 150.492C661.794 150.181 662.73 149.447 663.296 148.451C663.862 147.454 664.012 146.274 663.715 145.167C660.034 136.526 654.768 128.651 648.19 121.948C642.359 115.443 635.28 110.178 627.373 106.466C626.374 105.922 625.205 105.779 624.105 106.068C623.004 106.357 622.055 107.054 621.452 108.019C620.881 109.013 620.724 110.191 621.015 111.299C621.305 112.408 622.02 113.357 623.004 113.943Z" fill="#211715"/>
<path d="M539.819 148.75C548.365 138.776 558.079 129.866 568.752 122.212C569.866 121.452 570.999 120.718 572.158 120.033C572.482 119.876 572.795 119.695 573.092 119.492C573.703 118.967 573.767 119.672 572.708 119.365C571.064 118.898 571.024 117.897 571.284 119.778C571.504 121.368 571.073 122.944 571.395 124.523C571.585 125.509 571.977 126.445 572.547 127.272C573.117 128.099 573.852 128.798 574.706 129.326C578.132 131.359 581.264 129.562 584.277 127.815C587.025 126.22 589.755 124.593 592.497 122.986C599.059 118.955 605.864 115.334 612.873 112.143C613.858 111.558 614.574 110.608 614.864 109.5C615.155 108.391 614.997 107.212 614.425 106.219C613.826 105.249 612.877 104.547 611.775 104.258C610.672 103.969 609.501 104.115 608.504 104.666C602.23 107.502 596.132 110.712 590.242 114.278C587.38 115.942 584.537 117.634 581.682 119.308C580.472 120.015 579.264 120.722 578.045 121.414C577.941 121.474 577.174 121.893 577.178 121.905L578.13 121.876C578.243 121.803 578.371 121.756 578.505 121.738C578.638 121.721 578.774 121.734 578.902 121.776C579.03 121.818 579.147 121.888 579.244 121.981C579.342 122.075 579.417 122.189 579.464 122.315C580.775 122.787 579.414 122.991 579.939 122.495C580.033 122.02 580.057 121.534 580.009 121.052C579.985 117.206 578.864 112.469 574.762 111.102C571.448 109.998 568.557 112.025 565.874 113.759C560.135 117.593 554.716 121.884 549.668 126.592C544.068 131.657 538.74 137.016 533.707 142.646C530.007 146.795 536.108 152.928 539.826 148.768L539.819 148.75Z" fill="#211715"/>
<path d="M521.299 189.739C524.567 204.551 531.392 218.345 541.184 229.927C550.611 241.055 562.811 249.949 577.492 252.211C578.597 252.48 579.763 252.317 580.752 251.755C581.741 251.193 582.479 250.275 582.814 249.188C583.111 248.081 582.96 246.902 582.395 245.906C581.829 244.909 580.894 244.176 579.792 243.863C566.402 241.8 555.903 233.953 547.304 223.804C538.558 213.296 532.497 200.817 529.644 187.444C528.443 182.006 520.097 184.307 521.299 189.746V189.739Z" fill="#211715"/>
<path d="M666.171 187.444C663.539 199.752 658.205 211.321 650.554 221.313C646.795 226.318 642.322 230.743 637.278 234.447C632.418 237.779 627.088 240.365 621.462 242.117C616.19 243.839 618.446 252.202 623.763 250.467C630.115 248.521 636.142 245.642 641.647 241.922C647.329 237.844 652.391 232.964 656.676 227.435C665.389 216.38 671.488 203.495 674.516 189.746C675.715 184.314 667.373 181.989 666.171 187.444Z" fill="#211715"/>
<path d="M674.238 153.833C675.082 153.112 676.077 152.589 677.149 152.3C678.22 152.011 679.343 151.965 680.435 152.164C681.582 152.318 682.675 152.748 683.619 153.416C683.313 153.194 685.078 154.991 684.498 154.223C687.273 157.899 687.283 163.402 686.953 167.78C686.502 172.526 685.088 177.129 682.797 181.309C680.644 185.366 676.421 191.557 671.025 190.815C669.92 190.549 668.754 190.713 667.766 191.274C666.777 191.836 666.039 192.753 665.702 193.839C665.405 194.946 665.556 196.125 666.121 197.121C666.687 198.118 667.622 198.852 668.724 199.164C682.503 201.06 690.554 187.725 694.121 176.293C697.064 166.862 697.13 152.121 687.99 145.945C684.935 144.04 681.344 143.183 677.759 143.503C674.173 143.822 670.79 145.301 668.12 147.716C663.973 151.447 670.103 157.553 674.24 153.838L674.238 153.833Z" fill="#211715"/>
<path d="M528.203 147.137C525.773 144.926 522.742 143.485 519.493 142.994C516.245 142.504 512.924 142.986 509.949 144.381C507.849 145.462 506.014 146.994 504.574 148.867C503.135 150.74 502.126 152.907 501.62 155.215C498.692 166.005 501.396 178.571 507.468 187.834C511.566 194.086 518.106 199.784 526.106 198.749C527.243 198.713 528.323 198.246 529.127 197.441C529.931 196.637 530.398 195.556 530.434 194.42C530.428 193.273 529.97 192.176 529.16 191.365C528.349 190.555 527.252 190.097 526.106 190.09C520.156 190.861 516.168 185.942 513.577 181.179C511.195 176.929 509.725 172.229 509.262 167.378C508.926 162.924 508.966 157.428 511.712 153.658C511.883 153.42 511.849 153.467 511.609 153.802C511.788 153.596 511.975 153.396 512.17 153.204C512.257 153.128 513.133 152.431 512.711 152.727C513.57 152.132 514.553 151.738 515.585 151.576C516.724 151.335 517.902 151.361 519.029 151.653C520.155 151.945 521.199 152.495 522.076 153.259C526.186 157.008 532.324 150.9 528.196 147.137H528.203Z" fill="#211715"/>
<path d="M629.12 241.837V249.379C628.905 252.449 629.21 255.533 630.022 258.501C632.082 263.868 636.093 268.258 641.252 270.793C647.231 274.101 653.987 276.204 660.343 278.715C661.45 279.012 662.628 278.861 663.624 278.296C664.62 277.73 665.354 276.794 665.666 275.692C665.945 274.586 665.786 273.415 665.223 272.423C664.66 271.431 663.736 270.694 662.644 270.367C657.391 268.292 651.816 266.469 646.968 264.026C644.951 263.076 643.059 261.882 641.333 260.471C639.858 259.191 638.767 257.526 638.183 255.662C637.724 253.215 637.589 250.719 637.783 248.237V241.837C637.783 236.265 629.128 236.256 629.128 241.837H629.12Z" fill="#211715"/>
<path d="M560.079 243.533V250.357C560.124 251.673 560.093 252.991 559.987 254.304C559.848 255.049 559.641 255.78 559.37 256.488C558.698 258.167 557.6 259.643 556.184 260.769C554.332 262.19 552.326 263.4 550.205 264.376C545.665 266.564 540.203 268.404 535.2 270.376C534.112 270.71 533.192 271.447 532.63 272.437C532.069 273.427 531.907 274.595 532.178 275.701C532.49 276.803 533.223 277.739 534.219 278.305C535.215 278.87 536.394 279.021 537.5 278.724C543.762 276.545 549.901 274.03 555.892 271.189C560.863 268.898 564.873 264.936 567.225 259.993C569.425 254.874 568.734 248.989 568.734 243.542C568.734 242.394 568.278 241.293 567.466 240.481C566.655 239.669 565.554 239.213 564.406 239.213C563.259 239.213 562.158 239.669 561.346 240.481C560.535 241.293 560.079 242.394 560.079 243.542V243.533Z" fill="#211715"/>
<path d="M540.944 466.838L461.16 489.803L449.575 483.881C435.316 477.768 423.61 464.749 424.396 446.5C425.047 431.468 429.164 415.039 431.558 405.614C438.922 376.653 452.294 333.009 459.157 321.935C466.919 309.569 477.824 299.488 490.758 292.722C504.947 285.619 519.654 279.606 534.754 274.734C536.036 274.31 537.349 273.846 538.658 273.368L539.138 273.744C552.144 283.916 574.866 291.988 598.523 292.058C622.18 291.988 644.903 283.916 657.907 273.744L658.574 273.192C661.64 274.312 664.763 275.441 666.869 276.247C682.689 282.321 697.372 287.898 710.594 294.988C722.987 301.569 733.469 311.244 741.022 323.073C745.147 329.558 751.469 344.72 753.838 351.91C759.286 368.431 763.936 386.619 770.198 408.931C773.575 421.33 775.557 434.067 776.109 446.906C776.899 465.155 765.89 480.183 751.065 484.391L736.84 489.803L662.312 465.703C625.74 465.736 580.617 465.768 544.558 465.799L540.944 466.838Z" fill="white"/>
<path d="M459.032 436.633C468.091 432.749 477.731 430.395 487.56 429.666C488.699 429.64 489.785 429.176 490.591 428.369C491.397 427.563 491.861 426.477 491.887 425.337C491.877 424.192 491.418 423.096 490.609 422.287C489.799 421.477 488.704 421.018 487.56 421.008C476.209 421.826 465.083 424.583 454.663 429.159C453.678 429.744 452.963 430.694 452.673 431.803C452.382 432.911 452.539 434.09 453.111 435.083C453.711 436.052 454.66 436.754 455.762 437.043C456.864 437.332 458.035 437.186 459.032 436.636V436.633Z" fill="#211715"/>
<path d="M544.554 470.128L636.895 470.054L662.308 470.033C667.876 470.033 667.886 461.374 662.308 461.374C631.439 461.401 600.569 461.426 569.699 461.45L544.554 461.47C538.986 461.47 538.975 470.128 544.554 470.128Z" fill="#211715"/>
<path d="M703.309 355.315C701.851 382.84 699.593 410.315 698.091 437.836C697.788 443.404 706.443 443.386 706.746 437.836C708.248 410.315 710.506 382.84 711.964 355.315C712.26 349.747 703.605 349.763 703.309 355.315Z" fill="#211715"/>
<path d="M649.512 274.361C657.238 277.55 665.199 280.21 672.996 283.221C682.837 287.02 692.66 290.9 702.147 295.527C710.667 299.446 718.533 304.655 725.466 310.971C731.613 316.747 736.699 323.557 740.493 331.092C747.949 346.022 752.639 361.937 757.131 377.959C759.931 387.947 762.63 397.962 765.425 407.95C767.983 416.912 769.809 426.067 770.883 435.325C771.992 445.34 772.843 455.564 768.052 464.807C766.229 468.47 763.681 471.725 760.563 474.374C757.445 477.022 753.822 479.01 749.913 480.217C744.581 481.785 746.848 490.138 752.214 488.567C769.733 483.414 780.665 466.178 780.472 448.286C780.236 426.603 773.831 405.926 768.133 385.232C763.308 367.71 758.555 350.196 751.166 333.547C747.737 325.459 743.15 317.914 737.549 311.148C731.071 303.575 723.322 297.192 714.649 292.285C703.757 286.401 692.458 281.303 680.839 277.029C671.214 273.249 661.365 269.957 651.809 266.011C650.703 265.713 649.523 265.863 648.527 266.429C647.531 266.995 646.797 267.931 646.486 269.034C646.21 270.14 646.369 271.31 646.932 272.302C647.494 273.294 648.417 274.031 649.508 274.361H649.512Z" fill="#211715"/>
<path d="M485.965 349.944C487.184 368.106 488.98 386.228 490.242 404.387C490.269 405.527 490.733 406.613 491.539 407.419C492.345 408.225 493.43 408.69 494.57 408.716C495.715 408.707 496.81 408.248 497.62 407.438C498.43 406.629 498.888 405.533 498.897 404.387C497.635 386.228 495.832 368.106 494.62 349.944C494.594 348.804 494.13 347.718 493.324 346.911C492.518 346.105 491.432 345.64 490.293 345.614C489.148 345.624 488.053 346.083 487.244 346.893C486.434 347.703 485.975 348.798 485.965 349.944Z" fill="#211715"/>
<path d="M546.144 266.011C535.367 269.799 524.507 273.477 513.869 277.678C504.081 281.33 494.567 285.68 485.401 290.695C476.133 296.057 467.955 303.116 461.295 311.504C456.86 317.094 453.26 323.299 450.606 329.925C444.209 346.215 438.707 362.843 434.124 379.734C428.789 398.218 423.437 416.969 420.994 436.092C419.551 447.321 419.564 458.279 425.312 468.38C430.426 476.987 438.164 483.727 447.39 487.609C448.389 488.153 449.558 488.295 450.658 488.006C451.758 487.718 452.707 487.02 453.311 486.056C453.882 485.063 454.039 483.885 453.749 482.776C453.458 481.668 452.743 480.718 451.759 480.133C444.436 477.174 438.159 472.101 433.727 465.561C428.87 457.936 428.3 449.707 429.119 440.906C430.817 422.613 436.093 404.579 441.071 386.953C445.797 370.226 450.808 353.492 456.98 337.236C458.712 332.091 461.031 327.164 463.892 322.552C469.413 314.179 476.51 306.961 484.788 301.301C493.607 295.285 503.815 291.019 513.674 287.029C525.095 282.4 536.821 278.454 548.442 274.364C549.533 274.035 550.455 273.298 551.018 272.306C551.581 271.314 551.74 270.144 551.464 269.038C551.15 267.936 550.416 267.002 549.421 266.436C548.425 265.871 547.247 265.719 546.141 266.014L546.144 266.011Z" fill="#211715"/>
<path d="M357.18 470.336C379.753 470.336 402.324 470.235 424.898 470.235C430.467 470.235 430.476 461.576 424.898 461.576C402.324 461.576 379.753 461.675 357.18 461.677C351.612 461.677 351.603 470.336 357.18 470.336Z" fill="#211715"/>
<path d="M773.7 470.33C791.688 470.33 809.675 470.269 827.663 470.247C832.712 470.24 837.764 470.236 842.82 470.235C848.388 470.235 848.397 461.576 842.82 461.576C823.235 461.576 803.65 461.604 784.066 461.659C780.611 461.659 777.156 461.663 773.7 461.672C768.132 461.672 768.123 470.33 773.7 470.33Z" fill="#211715"/>
<path d="M536.076 276.805C549.305 287.04 565.874 292.803 582.322 295.135C600.929 297.817 619.91 295.851 637.573 289.412C645.97 286.434 653.86 282.182 660.965 276.805C661.772 275.99 662.224 274.89 662.224 273.744C662.224 272.597 661.772 271.497 660.965 270.683C660.14 269.897 659.044 269.459 657.905 269.459C656.766 269.459 655.671 269.897 654.845 270.683C643.003 279.846 627.438 284.626 612.818 286.737C595.966 289.044 578.806 287.229 562.809 281.446C555.419 278.959 548.464 275.329 542.196 270.69C541.366 269.912 540.272 269.479 539.136 269.479C537.999 269.479 536.905 269.912 536.076 270.69C535.271 271.505 534.82 272.605 534.82 273.751C534.82 274.897 535.271 275.996 536.076 276.812V276.805Z" fill="#211715"/>
<path d="M691.676 527.997C690.684 528.735 689.692 529.441 688.719 530.052C686.474 531.484 681.288 533.299 677.855 531.564C676.891 531.092 676.058 530.39 675.429 529.52C674.8 528.649 674.395 527.638 674.249 526.574L673.967 526.755C669.64 529.63 662.485 531.338 658.291 528.044C656.782 526.555 655.809 524.606 655.525 522.504C655.242 520.401 655.663 518.264 656.724 516.428C657.137 515.619 657.624 514.849 658.178 514.13C655.895 515.169 651.602 516.595 648.801 511.49C646.951 508.11 648.129 502.664 652.094 498.425C653.589 496.825 656.652 492.776 659.737 489.767C660.399 489.125 661.072 488.486 661.748 487.853L658.783 487.573C657.547 487.533 656.34 487.179 655.278 486.545C654.215 485.91 653.331 485.016 652.709 483.946C651.824 481.992 651.695 479.779 652.348 477.735C653.61 473.655 660.147 468.909 666.953 464.83C673.163 460.945 680.076 458.319 687.298 457.101C693.886 455.888 700.615 455.633 707.276 456.343C714.054 457.065 718.953 459.933 723.946 462.884C728.335 465.91 732.144 469.702 735.19 474.079C738.148 479.036 739.755 484.682 739.852 490.454C739.632 499.293 737.643 504.36 732.459 510.372C728.767 514.558 724.842 518.533 720.702 522.277C715.866 526.545 711.047 527.328 707.441 526.004C704.539 524.94 703.935 519.61 704.961 517.431L705.156 517.017L705.059 517.095C703.977 517.946 703.017 518.691 702.311 519.26C699.821 521.229 695.753 524.965 691.676 527.997Z" fill="white"/>
<path d="M680.641 486.217C675.358 490.84 670.289 495.687 665.239 500.561C660.792 504.854 655.518 509.164 652.691 514.781C649.685 520.757 651.115 529.316 657.408 532.61C663.28 535.677 670.832 533.916 676.16 530.499C680.834 527.501 676.499 520.005 671.791 523.023C669.979 524.234 667.933 525.051 665.785 525.42C664.923 525.526 664.053 525.551 663.187 525.494C662.671 525.425 662.167 525.291 661.685 525.097C662.125 525.277 660.433 524.231 661.057 524.736C660.711 524.372 660.429 523.951 660.222 523.493C659.788 522.496 659.644 521.397 659.806 520.322C660.254 518.686 661.091 517.183 662.245 515.941C665.724 512.029 669.416 508.313 673.306 504.809C677.707 500.561 682.159 496.371 686.762 492.343C687.564 491.526 688.014 490.427 688.014 489.282C688.014 488.137 687.564 487.037 686.762 486.22C685.94 485.429 684.844 484.987 683.702 484.987C682.561 484.987 681.465 485.429 680.643 486.22L680.641 486.217Z" fill="#211715"/>
<path d="M655.222 510.648C655.069 510.688 653.924 510.877 654.898 510.782C654.573 510.814 654.246 510.822 653.92 510.805C654.036 510.805 653.677 510.753 653.637 510.717C653.37 510.45 653.118 510.169 652.88 509.876L652.548 509.313C652.648 509.633 652.648 509.647 652.548 509.355C652.415 509.005 652.32 508.642 652.263 508.272C652.368 508.947 652.287 507.551 652.287 507.551C652.382 504.524 655.009 501.739 657.121 499.206C663.149 492.357 669.751 486.036 676.854 480.311C677.657 479.495 678.107 478.395 678.107 477.25C678.107 476.105 677.657 475.005 676.854 474.189C676.031 473.398 674.935 472.957 673.794 472.957C672.654 472.957 671.557 473.398 670.734 474.189C662.364 480.954 654.689 488.537 647.822 496.825C644.504 501.037 642.348 507.017 644.441 512.264C645.353 514.843 647.215 516.975 649.645 518.226C652.076 519.478 654.892 519.753 657.519 518.996C662.898 517.575 660.617 509.221 655.219 510.648H655.222Z" fill="#211715"/>
<path d="M695.953 495.388C690.242 500.458 684.44 505.435 678.951 510.749C674.124 515.421 668.082 521.484 670.35 528.862C672.934 537.271 682.401 537.767 689.245 534.665C692.402 532.998 695.335 530.937 697.974 528.531C700.468 526.497 702.855 524.336 705.367 522.328C710.248 518.426 715.358 514.775 720.03 510.621C720.83 509.807 721.277 508.709 721.272 507.567C721.268 506.425 720.812 505.331 720.005 504.524C719.198 503.716 718.104 503.26 716.963 503.256C715.821 503.251 714.724 503.698 713.91 504.499C710.262 507.746 706.326 510.677 702.478 513.675C698.41 516.846 694.577 520.297 690.522 523.481C688.615 525.176 686.424 526.519 684.049 527.449C682.246 527.999 679.856 528.391 678.879 526.908C678.017 525.597 678.535 524.476 679.71 522.774C681.464 520.438 683.447 518.285 685.632 516.347C690.965 511.243 696.553 506.425 702.073 501.526C702.884 500.714 703.34 499.613 703.34 498.464C703.34 497.316 702.883 496.215 702.072 495.403C701.26 494.591 700.159 494.135 699.011 494.135C697.863 494.135 696.763 494.592 695.951 495.404L695.953 495.388Z" fill="#211715"/>
<path d="M658.794 483.248C656.991 483.309 656.115 481.5 656.32 479.862C656.865 478.021 658.007 476.413 659.566 475.293C664.466 471.045 669.98 467.564 675.922 464.968C681.306 462.655 687.021 461.209 692.857 460.682C699.047 459.763 705.357 460.07 711.429 461.584C716.086 463.029 720.422 465.356 724.202 468.438C728.053 471.42 731.128 475.288 733.164 479.714C735.483 484.939 736.113 490.759 734.967 496.36C733.942 500.881 731.697 505.034 728.476 508.366C726.388 510.711 724.199 512.957 721.966 515.156C719.901 517.453 717.53 519.456 714.92 521.109C713.871 521.709 712.713 522.094 711.514 522.24C711.056 522.275 710.596 522.28 710.138 522.254C709.958 522.231 708.717 521.848 709.319 522.171C709.783 522.42 709.211 522.072 709.025 521.614C709.162 521.953 708.845 520.651 708.863 520.815C708.679 520.063 708.779 519.27 709.143 518.587C709.44 517.48 709.29 516.3 708.724 515.303C708.158 514.306 707.222 513.573 706.119 513.262C705.013 512.985 703.843 513.144 702.852 513.707C701.861 514.27 701.125 515.193 700.796 516.285C699.831 519.138 699.954 522.247 701.14 525.014C701.718 526.528 702.697 527.857 703.972 528.856C705.247 529.856 706.77 530.49 708.378 530.689C716.384 531.973 722.509 526.753 727.841 521.522C732.614 516.832 737.879 511.824 740.856 505.747C743.955 499.147 744.938 491.749 743.671 484.568C741.308 470.81 730.856 460.49 718.472 455.037C710.827 451.96 702.526 450.871 694.346 451.874C686.488 452.44 678.782 454.339 671.56 457.491C667.462 459.408 663.536 461.672 659.822 464.257C656.037 466.59 652.698 469.578 649.961 473.081C648.81 474.733 648.061 476.631 647.771 478.623C647.481 480.615 647.659 482.648 648.291 484.559C649.11 486.694 650.549 488.535 652.424 489.844C654.298 491.153 656.521 491.871 658.807 491.904C664.362 491.715 664.387 483.057 658.807 483.246L658.794 483.248Z" fill="#211715"/>
<path d="M667.824 531.865C672.565 555.171 677.307 578.476 681.852 601.822C682.167 602.923 682.901 603.856 683.896 604.422C684.891 604.987 686.069 605.139 687.175 604.845C688.269 604.519 689.194 603.783 689.758 602.791C690.322 601.798 690.48 600.626 690.199 599.52C685.652 576.175 680.911 552.869 676.171 529.563C675.866 528.456 675.133 527.515 674.135 526.948C673.137 526.381 671.954 526.234 670.847 526.539C669.74 526.844 668.8 527.577 668.233 528.576C667.666 529.574 667.519 530.758 667.824 531.865Z" fill="#211715"/>
<path d="M513.07 605H686.023C691.593 605 691.602 596.342 686.023 596.342H513.07C507.5 596.342 507.491 605 513.07 605Z" fill="#211715"/>
<path d="M517.242 601.822C522.673 574.149 528.342 546.525 533.916 518.883C535.238 512.311 536.552 505.737 537.859 499.161C538.135 498.055 537.975 496.885 537.413 495.893C536.85 494.902 535.928 494.165 534.837 493.835C533.73 493.54 532.552 493.693 531.557 494.258C530.561 494.824 529.827 495.758 529.512 496.86C524.325 523.113 518.908 549.321 513.645 575.561C512.045 583.543 510.46 591.529 508.89 599.52C508.614 600.626 508.774 601.796 509.337 602.787C509.899 603.778 510.821 604.515 511.912 604.845C513.019 605.139 514.196 604.988 515.192 604.422C516.187 603.857 516.921 602.923 517.235 601.822H517.242Z" fill="#211715"/>
<path d="M557.403 494.922H650.154C655.722 494.922 655.731 486.264 650.154 486.264H557.403C551.833 486.264 551.824 494.922 557.403 494.922Z" fill="#211715"/>
<path d="M496.411 585.344C490.04 584.608 483.686 583.715 477.348 582.667L479.934 589.025C490.382 570.135 500.828 551.243 511.272 532.348C513.966 527.467 506.494 523.093 503.8 527.978C493.372 546.88 482.926 565.771 472.462 584.651C471.234 586.871 472.19 590.541 475.047 591.011C482.14 592.18 489.261 593.176 496.411 593.998C497.557 593.992 498.653 593.534 499.463 592.723C500.274 591.913 500.732 590.815 500.738 589.669C500.712 588.529 500.248 587.443 499.442 586.637C498.636 585.831 497.55 585.366 496.411 585.34V585.344Z" fill="#211715"/>
<path d="M537.143 452.912C527.987 436.541 517.825 418.064 513.993 411.978C513.484 410.905 512.644 410.023 511.597 409.463C510.55 408.903 509.351 408.694 508.176 408.866C506.018 409.253 504.032 410.299 502.491 411.86C501.724 412.747 501.27 413.862 501.201 415.032C501.131 416.203 501.45 417.363 502.107 418.334C513.968 437.275 525.169 455.378 530.62 464.453C535.932 473.292 550.611 497.438 557.567 508.545C558.2 509.546 559.195 510.263 560.344 510.546C561.494 510.829 562.708 510.655 563.732 510.062C564.756 509.468 565.511 508.501 565.838 507.363C566.165 506.225 566.038 505.004 565.485 503.958C559.901 493.481 548.819 473.786 537.143 452.912Z" fill="#211715"/>
<path d="M538.64 450.513C535.912 448.641 532.89 447.239 529.7 446.365C527.324 445.701 524.873 445.34 522.406 445.291C519.267 445.355 516.135 445.621 513.03 446.087C507.162 446.861 501.24 447.143 495.325 446.931C492.181 446.74 487.211 446.821 484.622 448.605C480.548 451.255 477.002 454.639 474.164 458.586C469.561 465.353 466.003 472.776 463.61 480.603C462.583 483.592 462.889 489.72 465.486 491.52C470.812 495.205 483.263 508.512 490.488 511.803C493.261 513.099 496.264 513.83 499.323 513.953C503.182 513.974 507.978 511.922 507.88 505.599C510.379 507.64 513.565 508.643 516.781 508.402C518.645 508.35 520.469 507.843 522.093 506.925C523.391 505.896 524.418 504.566 525.086 503.05C525.754 501.534 526.042 499.878 525.926 498.225L525.865 497.583C526.476 498.079 527.105 498.575 527.747 499.078C529.742 500.448 532.123 501.142 534.542 501.059C536.96 500.976 539.288 500.12 541.184 498.617C542.956 496.813 545.167 491.179 543.658 487.209L543.445 486.697C543.829 487.045 544.231 487.389 544.637 487.736C546.436 489.126 548.556 490.04 550.802 490.393C551.899 490.652 553.037 490.685 554.147 490.491C555.258 490.297 556.317 489.878 557.261 489.262C558.52 488.182 559.442 486.763 559.92 485.174C560.397 483.585 560.409 481.892 559.954 480.297C558.994 477.123 557.422 474.167 555.329 471.595C551.363 466.03 543.499 454.962 538.643 450.521" fill="white"/>
<path d="M492.475 497.5C495.578 500.692 498.841 503.724 502.253 506.584C505.266 509.109 508.331 511.62 512.302 512.344C514.421 512.841 516.618 512.914 518.765 512.558C520.913 512.203 522.969 511.426 524.815 510.273C526.625 508.851 528.065 507.012 529.011 504.912C529.957 502.813 530.382 500.517 530.25 498.218C530.224 497.078 529.76 495.992 528.954 495.185C528.148 494.379 527.062 493.914 525.922 493.889C524.778 493.898 523.682 494.357 522.873 495.167C522.063 495.977 521.604 497.073 521.595 498.218C521.62 498.606 521.626 498.981 521.617 499.369C521.608 499.757 521.719 499.172 521.559 499.84C521.467 500.222 521.37 500.597 521.247 500.971C521.189 501.151 520.834 501.921 521.076 501.431C520.879 501.831 520.654 502.201 520.425 502.583C520.27 502.841 520.064 503.04 520.363 502.693C520.237 502.836 519.375 503.568 520.183 503.002C519.973 503.143 519.755 503.273 519.53 503.391C518.694 503.868 519.817 503.391 518.842 503.667C518.531 503.754 518.22 503.837 517.911 503.927C517.381 504.06 516.833 504.107 516.288 504.064C515.823 504.064 515.365 504.024 514.902 504.01C514.559 503.997 514.328 503.958 514.808 504.026C514.119 503.917 513.44 503.75 512.778 503.528C512.177 503.339 513.605 504.008 512.612 503.462C512.329 503.307 512.04 503.162 511.761 502.998C511.261 502.704 510.499 502.179 510.244 501.99C509.272 501.268 507.785 499.971 506.66 498.997C503.863 496.576 501.187 494.026 498.605 491.376C498.203 490.974 497.725 490.655 497.199 490.438C496.673 490.22 496.11 490.108 495.541 490.109C494.972 490.109 494.409 490.222 493.884 490.44C493.358 490.658 492.881 490.978 492.479 491.38C492.077 491.783 491.758 492.261 491.541 492.787C491.324 493.313 491.212 493.877 491.213 494.446C491.213 495.015 491.326 495.578 491.544 496.104C491.762 496.629 492.081 497.107 492.484 497.509L492.475 497.5Z" fill="#211715"/>
<path d="M505.481 485.636C509.644 489.473 513.854 493.261 518.2 496.892C521.997 500.063 526.007 504.263 531.061 505.116C535.611 505.882 541.159 504.959 544.448 501.447C546.241 499.361 547.489 496.863 548.079 494.175C548.669 491.488 548.582 488.696 547.827 486.051C547.498 484.959 546.762 484.035 545.77 483.472C544.778 482.909 543.608 482.75 542.502 483.028C541.402 483.343 540.469 484.077 539.905 485.073C539.34 486.069 539.187 487.246 539.48 488.353C540.01 489.885 539.957 491.558 539.332 493.053C539.162 493.745 538.876 494.403 538.487 495C538.424 495.106 537.812 495.97 538.198 495.492C538.689 494.884 537.453 496.165 538.088 495.62C538.555 495.218 537.648 495.867 537.52 495.947C537.354 496.041 537.187 496.127 537.015 496.205C537.376 496.059 537.411 496.041 537.12 496.151C536.37 496.43 535.592 496.628 534.799 496.742C535.52 496.654 534.244 496.742 534.105 496.742C533.631 496.755 533.157 496.732 532.686 496.674C533.295 496.762 531.932 496.45 531.954 496.457C530.917 496.16 532.152 496.661 531.184 496.156C529.663 495.208 528.232 494.121 526.911 492.909C525.366 491.654 523.835 490.379 522.318 489.085C518.676 485.977 515.122 482.772 511.6 479.525C507.509 475.755 501.373 481.87 505.481 485.647V485.636Z" fill="#211715"/>
<path d="M503.632 505.909C503.622 506.477 503.492 507.036 503.252 507.55C503.011 508.064 502.665 508.521 502.237 508.893C501.427 509.381 500.497 509.631 499.552 509.614C496.223 509.516 492.986 508.504 490.194 506.689C484.701 503.218 480.01 498.45 475.219 494.103C473.041 492.119 470.859 490.147 468.502 488.387C468.322 488.248 468.116 488.111 467.932 487.965C468.614 488.506 467.97 488.019 467.914 487.891C468.037 488.176 467.743 487.297 467.667 486.969C467.373 485.663 467.301 484.317 467.455 482.988C468.263 479.58 469.452 476.275 471 473.134C472.584 469.518 474.459 466.038 476.607 462.727C478.796 459.276 481.578 456.24 484.824 453.758C486.021 452.692 487.45 451.92 488.998 451.505C490.717 451.195 492.468 451.094 494.211 451.202C501.778 451.286 509.342 450.864 516.853 449.94C523.779 449.243 532.141 449.835 537.262 455.239C541.88 460.38 546.139 465.831 550.01 471.555C552.235 474.665 555.512 478.195 555.883 482.144C556.269 486.256 552.96 486.731 549.753 485.647C547.653 484.691 545.764 483.327 544.195 481.635C542.25 479.923 540.328 478.19 538.407 476.449C534.26 472.69 530.124 468.92 525.874 465.276C525.049 464.49 523.953 464.052 522.814 464.052C521.675 464.052 520.579 464.49 519.754 465.276C518.952 466.093 518.502 467.192 518.502 468.337C518.502 469.482 518.952 470.581 519.754 471.398C524.21 475.219 528.539 479.178 532.89 483.123C536.878 486.731 540.982 491.421 546.034 493.468C550.824 495.404 556.77 495.698 560.797 491.933C562.577 490.075 563.794 487.75 564.307 485.228C564.821 482.706 564.61 480.09 563.698 477.683C561.938 473.487 559.572 469.573 556.676 466.064C554.109 462.491 551.491 458.953 548.772 455.494C546.465 452.123 543.674 449.11 540.49 446.552C536.839 444.119 532.735 442.448 528.423 441.638C525.599 441.074 522.714 440.875 519.839 441.047C518.557 441.119 517.278 441.227 516.002 441.377C515.291 441.454 514.583 441.543 513.876 441.635C514.191 441.593 511.045 441.996 512.231 441.857C507.885 442.395 503.51 442.675 499.13 442.695C494.602 442.695 489.905 442.037 485.502 443.471C480.837 444.992 476.501 449.032 473.311 452.662C466.833 460.038 462.844 469.506 459.696 478.689C458.367 482.518 458.377 486.684 459.725 490.506C460.479 492.501 461.817 494.221 463.565 495.442C464.186 495.907 463.679 495.512 463.565 495.418C463.892 495.667 464.207 495.932 464.525 496.194C465.192 496.746 465.844 497.314 466.495 497.886C473.021 503.624 479.22 510.417 486.822 514.764C491.483 517.588 496.975 518.718 502.372 517.964C504.787 517.536 507.009 516.368 508.731 514.621C510.454 512.874 511.59 510.635 511.984 508.213C512.254 507.107 512.091 505.94 511.529 504.951C510.968 503.961 510.049 503.223 508.962 502.888C507.856 502.591 506.677 502.742 505.681 503.307C504.685 503.873 503.952 504.809 503.64 505.911L503.632 505.909Z" fill="#211715"/>
</g>
<path d="M161.28 362.414C160.452 362.414 159.854 362.092 159.486 361.448C159.118 360.804 158.934 360.114 158.934 359.378C159.026 357.814 159.394 356.94 160.038 356.756C160.682 356.572 161.464 356.48 162.384 356.48C165.328 356.48 167.398 355.974 168.594 354.962C169.79 353.858 170.526 352.524 170.802 350.96C171.17 349.304 171.354 347.602 171.354 345.854V291.068C171.354 289.32 171.17 287.664 170.802 286.1C170.526 284.444 169.79 283.11 168.594 282.098C167.398 280.994 165.328 280.442 162.384 280.442C161.464 280.442 160.682 280.35 160.038 280.166C159.394 279.982 159.026 279.108 158.934 277.544C158.934 276.808 159.118 276.118 159.486 275.474C159.854 274.83 160.452 274.508 161.28 274.508C164.316 274.6 167.122 274.692 169.698 274.784C172.274 274.876 174.942 274.922 177.702 274.922C183.314 274.922 189.064 274.784 194.952 274.508C195.872 274.508 196.516 274.83 196.884 275.474C197.252 276.118 197.436 276.808 197.436 277.544C197.344 279.108 196.976 279.982 196.332 280.166C195.688 280.35 194.906 280.442 193.986 280.442C191.134 280.442 189.064 280.994 187.776 282.098C186.58 283.11 185.844 284.444 185.568 286.1C185.292 287.664 185.108 289.32 185.016 291.068V347.924C185.108 349.12 185.292 350.408 185.568 351.788C185.844 353.168 186.626 354.318 187.914 355.238C189.294 356.158 191.548 356.572 194.676 356.48H207.096C210.316 356.388 212.754 355.882 214.41 354.962C216.158 353.95 217.538 352.294 218.55 349.994C219.562 347.694 220.666 344.52 221.862 340.472C222.23 339.552 222.828 338.954 223.656 338.678C224.576 338.402 225.542 338.356 226.554 338.54C227.29 338.632 228.026 338.954 228.762 339.506C229.59 340.058 229.958 340.794 229.866 341.714L227.106 359.102C226.83 360.39 226.37 361.218 225.726 361.586C225.174 361.862 224.3 362 223.104 362H177.84C175.08 362 172.366 362 169.698 362C167.122 362.092 164.316 362.23 161.28 362.414ZM240.118 362.414C239.29 362.414 238.692 362.092 238.324 361.448C237.956 360.804 237.772 360.114 237.772 359.378C237.864 357.814 238.232 356.94 238.876 356.756C239.52 356.572 240.302 356.48 241.222 356.48C244.166 356.48 246.236 355.974 247.432 354.962C248.628 353.858 249.364 352.524 249.64 350.96C250.008 349.304 250.192 347.602 250.192 345.854V291.068C250.192 289.32 250.008 287.664 249.64 286.1C249.364 284.444 248.628 283.11 247.432 282.098C246.236 280.994 244.166 280.442 241.222 280.442C240.302 280.442 239.52 280.35 238.876 280.166C238.232 279.982 237.864 279.108 237.772 277.544C237.772 276.808 237.956 276.118 238.324 275.474C238.692 274.83 239.29 274.508 240.118 274.508C243.154 274.6 245.96 274.692 248.536 274.784C251.112 274.876 253.78 274.922 256.54 274.922H299.872C300.884 274.922 301.712 275.152 302.356 275.612C303.092 276.072 303.46 276.946 303.46 278.234L303.874 297.554C303.874 298.474 303.414 299.164 302.494 299.624C301.666 300.084 300.884 300.314 300.148 300.314C299.136 300.314 298.216 300.13 297.388 299.762C296.56 299.302 296.054 298.658 295.87 297.83C295.226 293.69 294.444 290.378 293.524 287.894C292.696 285.318 291.408 283.478 289.66 282.374C288.004 281.178 285.566 280.534 282.346 280.442H263.854V315.494H288.832C289.568 315.586 290.074 315.954 290.35 316.598C290.718 317.242 290.902 317.932 290.902 318.668C290.902 319.312 290.718 319.956 290.35 320.6C290.074 321.152 289.568 321.428 288.832 321.428H263.854V347.51C263.946 348.706 264.13 350.04 264.406 351.512C264.682 352.892 265.464 354.088 266.752 355.1C268.132 356.112 270.386 356.572 273.514 356.48H286.21C289.43 356.388 291.868 355.882 293.524 354.962C295.272 353.95 296.652 352.294 297.664 349.994C298.676 347.694 299.78 344.52 300.976 340.472C301.344 339.552 301.942 338.954 302.77 338.678C303.69 338.402 304.656 338.356 305.668 338.54C306.404 338.632 307.14 338.954 307.876 339.506C308.704 340.058 309.072 340.794 308.98 341.714L306.22 359.102C305.944 360.39 305.484 361.218 304.84 361.586C304.288 361.862 303.414 362 302.218 362H256.678C253.918 362 251.204 362 248.536 362C245.96 362.092 243.154 362.23 240.118 362.414ZM338.477 362.414C337.557 362.414 336.913 362.092 336.545 361.448C336.177 360.804 335.993 360.114 335.993 359.378C336.085 357.814 336.453 356.94 337.097 356.756C337.741 356.572 338.523 356.48 339.443 356.48C342.387 356.48 344.457 355.974 345.653 354.962C346.849 353.858 347.585 352.524 347.861 350.96C348.229 349.304 348.413 347.602 348.413 345.854V280.028H338.891C335.763 280.12 333.325 280.81 331.577 282.098C329.829 283.294 328.541 285.226 327.713 287.894C326.885 290.47 326.149 293.828 325.505 297.968C325.413 298.796 324.815 299.44 323.711 299.9C322.699 300.268 321.687 300.452 320.675 300.452C320.031 300.452 319.295 300.222 318.467 299.762C317.731 299.302 317.363 298.612 317.363 297.692L317.777 278.234C317.777 276.946 318.145 276.072 318.881 275.612C319.617 275.152 320.491 274.922 321.503 274.922H388.985C389.997 274.922 390.825 275.152 391.469 275.612C392.205 276.072 392.573 276.946 392.573 278.234L393.125 297.692C393.125 298.612 392.711 299.302 391.883 299.762C391.147 300.222 390.411 300.452 389.675 300.452C388.755 300.452 387.789 300.268 386.777 299.9C385.765 299.44 385.167 298.796 384.983 297.968C384.339 293.828 383.557 290.47 382.637 287.894C381.809 285.226 380.521 283.294 378.773 282.098C377.117 280.81 374.679 280.12 371.459 280.028H362.075V345.854C362.167 347.602 362.351 349.304 362.627 350.96C362.903 352.524 363.639 353.858 364.835 354.962C366.123 355.974 368.193 356.48 371.045 356.48C371.965 356.48 372.747 356.572 373.391 356.756C374.035 356.94 374.403 357.814 374.495 359.378C374.495 360.114 374.311 360.804 373.943 361.448C373.575 362.092 372.931 362.414 372.011 362.414C369.067 362.23 366.261 362.092 363.593 362C361.017 362 358.395 362 355.727 362C350.207 362 344.457 362.138 338.477 362.414ZM421.223 362.414C420.303 362.414 419.659 362.092 419.291 361.448C418.923 360.804 418.739 360.114 418.739 359.378C418.831 357.814 419.199 356.94 419.843 356.756C420.487 356.572 421.269 356.48 422.189 356.48C425.133 356.48 427.203 355.974 428.399 354.962C429.595 353.858 430.331 352.524 430.607 350.96C430.975 349.304 431.159 347.602 431.159 345.854V280.028H421.637C418.509 280.12 416.071 280.81 414.323 282.098C412.575 283.294 411.287 285.226 410.459 287.894C409.631 290.47 408.895 293.828 408.251 297.968C408.159 298.796 407.561 299.44 406.457 299.9C405.445 300.268 404.433 300.452 403.421 300.452C402.777 300.452 402.041 300.222 401.213 299.762C400.477 299.302 400.109 298.612 400.109 297.692L400.523 278.234C400.523 276.946 400.891 276.072 401.627 275.612C402.363 275.152 403.237 274.922 404.249 274.922H471.731C472.743 274.922 473.571 275.152 474.215 275.612C474.951 276.072 475.319 276.946 475.319 278.234L475.871 297.692C475.871 298.612 475.457 299.302 474.629 299.762C473.893 300.222 473.157 300.452 472.421 300.452C471.501 300.452 470.535 300.268 469.523 299.9C468.511 299.44 467.913 298.796 467.729 297.968C467.085 293.828 466.303 290.47 465.383 287.894C464.555 285.226 463.267 283.294 461.519 282.098C459.863 280.81 457.425 280.12 454.205 280.028H444.821V345.854C444.913 347.602 445.097 349.304 445.373 350.96C445.649 352.524 446.385 353.858 447.581 354.962C448.869 355.974 450.939 356.48 453.791 356.48C454.711 356.48 455.493 356.572 456.137 356.756C456.781 356.94 457.149 357.814 457.241 359.378C457.241 360.114 457.057 360.804 456.689 361.448C456.321 362.092 455.677 362.414 454.757 362.414C451.813 362.23 449.007 362.092 446.339 362C443.763 362 441.141 362 438.473 362C432.953 362 427.203 362.138 421.223 362.414ZM485.93 362.414C485.102 362.414 484.504 362.092 484.136 361.448C483.768 360.804 483.584 360.114 483.584 359.378C483.676 357.814 484.044 356.94 484.688 356.756C485.332 356.572 486.114 356.48 487.034 356.48C489.978 356.48 492.048 355.974 493.244 354.962C494.44 353.858 495.176 352.524 495.452 350.96C495.82 349.304 496.004 347.602 496.004 345.854V291.068C496.004 289.32 495.82 287.664 495.452 286.1C495.176 284.444 494.44 283.11 493.244 282.098C492.048 280.994 489.978 280.442 487.034 280.442C486.114 280.442 485.332 280.35 484.688 280.166C484.044 279.982 483.676 279.108 483.584 277.544C483.584 276.808 483.768 276.118 484.136 275.474C484.504 274.83 485.102 274.508 485.93 274.508C488.966 274.6 491.772 274.692 494.348 274.784C496.924 274.876 499.592 274.922 502.352 274.922H545.684C546.696 274.922 547.524 275.152 548.168 275.612C548.904 276.072 549.272 276.946 549.272 278.234L549.686 297.554C549.686 298.474 549.226 299.164 548.306 299.624C547.478 300.084 546.696 300.314 545.96 300.314C544.948 300.314 544.028 300.13 543.2 299.762C542.372 299.302 541.866 298.658 541.682 297.83C541.038 293.69 540.256 290.378 539.336 287.894C538.508 285.318 537.22 283.478 535.472 282.374C533.816 281.178 531.378 280.534 528.158 280.442H509.666V315.494H534.644C535.38 315.586 535.886 315.954 536.162 316.598C536.53 317.242 536.714 317.932 536.714 318.668C536.714 319.312 536.53 319.956 536.162 320.6C535.886 321.152 535.38 321.428 534.644 321.428H509.666V347.51C509.758 348.706 509.942 350.04 510.218 351.512C510.494 352.892 511.276 354.088 512.564 355.1C513.944 356.112 516.198 356.572 519.326 356.48H532.022C535.242 356.388 537.68 355.882 539.336 354.962C541.084 353.95 542.464 352.294 543.476 349.994C544.488 347.694 545.592 344.52 546.788 340.472C547.156 339.552 547.754 338.954 548.582 338.678C549.502 338.402 550.468 338.356 551.48 338.54C552.216 338.632 552.952 338.954 553.688 339.506C554.516 340.058 554.884 340.794 554.792 341.714L552.032 359.102C551.756 360.39 551.296 361.218 550.652 361.586C550.1 361.862 549.226 362 548.03 362H502.49C499.73 362 497.016 362 494.348 362C491.772 362.092 488.966 362.23 485.93 362.414ZM568.006 362.414C567.086 362.414 566.442 362.092 566.074 361.448C565.706 360.804 565.522 360.114 565.522 359.378C565.614 357.814 565.982 356.94 566.626 356.756C567.27 356.572 568.052 356.48 568.972 356.48C571.916 356.48 573.986 355.974 575.182 354.962C576.378 353.858 577.114 352.524 577.39 350.96C577.758 349.304 577.942 347.602 577.942 345.854V291.206C577.942 289.458 577.758 287.756 577.39 286.1C577.114 284.444 576.378 283.11 575.182 282.098C573.986 280.994 571.916 280.442 568.972 280.442C568.052 280.442 567.27 280.35 566.626 280.166C565.982 279.982 565.614 279.108 565.522 277.544C565.522 276.808 565.706 276.118 566.074 275.474C566.442 274.83 567.086 274.508 568.006 274.508C570.95 274.6 573.71 274.692 576.286 274.784C578.954 274.876 581.668 274.922 584.428 274.922H608.164C615.616 275.014 621.642 276.164 626.242 278.372C630.934 280.58 634.338 283.386 636.454 286.79C638.57 290.194 639.628 293.736 639.628 297.416C639.628 302.292 637.65 306.892 633.694 311.216C629.83 315.54 624.356 318.622 617.272 320.462C620.768 325.982 624.31 331.548 627.898 337.16C631.486 342.68 635.626 347.878 640.318 352.754C641.606 353.766 642.848 354.594 644.044 355.238C645.332 355.882 646.85 356.296 648.598 356.48C649.334 356.572 650.07 356.71 650.806 356.894C651.542 356.986 651.956 357.814 652.048 359.378C652.048 360.114 651.864 360.804 651.496 361.448C651.128 362.092 650.484 362.414 649.564 362.414C647.632 362.322 646.068 362.23 644.872 362.138C643.768 362.138 642.664 362.092 641.56 362C640.456 362 638.984 362 637.144 362C633.372 361.264 630.152 359.93 627.484 357.998C624.908 356.066 622.378 353.398 619.894 349.994C617.318 346.498 614.926 342.956 612.718 339.368C610.51 335.78 608.348 332.284 606.232 328.88C605.036 326.948 603.794 325.568 602.506 324.74C601.31 323.82 599.01 323.36 595.606 323.36H591.604V345.854C591.696 347.602 591.88 349.304 592.156 350.96C592.432 352.524 593.168 353.858 594.364 354.962C595.652 355.974 597.722 356.48 600.574 356.48C601.494 356.48 602.276 356.572 602.92 356.756C603.564 356.94 603.932 357.814 604.024 359.378C604.024 360.114 603.84 360.804 603.472 361.448C603.104 362.092 602.46 362.414 601.54 362.414C595.652 362.138 589.902 362 584.29 362C581.53 362 578.862 362 576.286 362C573.71 362.092 570.95 362.23 568.006 362.414ZM591.604 317.978H603.748C608.44 317.978 612.12 317.334 614.788 316.046C617.548 314.758 619.618 313.102 620.998 311.078C622.378 309.054 623.252 306.938 623.62 304.73C624.08 302.522 624.31 300.498 624.31 298.658C624.31 295.622 623.62 292.678 622.24 289.826C620.952 286.974 618.606 284.628 615.202 282.788C611.89 280.948 607.244 280.028 601.264 280.028C597.308 280.028 594.686 280.81 593.398 282.374C592.202 283.846 591.604 286.882 591.604 291.482V317.978ZM691.316 362.414C690.396 362.414 689.752 362.092 689.384 361.448C689.016 360.804 688.832 360.114 688.832 359.378C688.924 357.814 689.292 356.94 689.936 356.756C690.58 356.572 691.362 356.48 692.282 356.48C695.226 356.48 697.296 355.974 698.492 354.962C699.688 353.858 700.424 352.524 700.7 350.96C701.068 349.304 701.252 347.602 701.252 345.854V291.206C701.252 289.458 701.068 287.756 700.7 286.1C700.424 284.444 699.688 283.11 698.492 282.098C697.296 280.994 695.226 280.442 692.282 280.442C691.362 280.442 690.58 280.35 689.936 280.166C689.292 279.982 688.924 279.108 688.832 277.544C688.832 276.808 689.016 276.118 689.384 275.474C689.752 274.83 690.396 274.508 691.316 274.508C694.26 274.6 697.02 274.692 699.596 274.784C702.264 274.876 704.978 274.922 707.738 274.922H731.474C738.926 275.014 744.952 276.164 749.552 278.372C754.244 280.58 757.648 283.386 759.764 286.79C761.88 290.194 762.938 293.736 762.938 297.416C762.938 302.292 760.96 306.892 757.004 311.216C753.14 315.54 747.666 318.622 740.582 320.462C744.078 325.982 747.62 331.548 751.208 337.16C754.796 342.68 758.936 347.878 763.628 352.754C764.916 353.766 766.158 354.594 767.354 355.238C768.642 355.882 770.16 356.296 771.908 356.48C772.644 356.572 773.38 356.71 774.116 356.894C774.852 356.986 775.266 357.814 775.358 359.378C775.358 360.114 775.174 360.804 774.806 361.448C774.438 362.092 773.794 362.414 772.874 362.414C770.942 362.322 769.378 362.23 768.182 362.138C767.078 362.138 765.974 362.092 764.87 362C763.766 362 762.294 362 760.454 362C756.682 361.264 753.462 359.93 750.794 357.998C748.218 356.066 745.688 353.398 743.204 349.994C740.628 346.498 738.236 342.956 736.028 339.368C733.82 335.78 731.658 332.284 729.542 328.88C728.346 326.948 727.104 325.568 725.816 324.74C724.62 323.82 722.32 323.36 718.916 323.36H714.914V345.854C715.006 347.602 715.19 349.304 715.466 350.96C715.742 352.524 716.478 353.858 717.674 354.962C718.962 355.974 721.032 356.48 723.884 356.48C724.804 356.48 725.586 356.572 726.23 356.756C726.874 356.94 727.242 357.814 727.334 359.378C727.334 360.114 727.15 360.804 726.782 361.448C726.414 362.092 725.77 362.414 724.85 362.414C718.962 362.138 713.212 362 707.6 362C704.84 362 702.172 362 699.596 362C697.02 362.092 694.26 362.23 691.316 362.414ZM714.914 317.978H727.058C731.75 317.978 735.43 317.334 738.098 316.046C740.858 314.758 742.928 313.102 744.308 311.078C745.688 309.054 746.562 306.938 746.93 304.73C747.39 302.522 747.62 300.498 747.62 298.658C747.62 295.622 746.93 292.678 745.55 289.826C744.262 286.974 741.916 284.628 738.512 282.788C735.2 280.948 730.554 280.028 724.574 280.028C720.618 280.028 717.996 280.81 716.708 282.374C715.512 283.846 714.914 286.882 714.914 291.482V317.978ZM822.06 364.76C814.7 364.76 808.536 363.472 803.568 360.896C798.6 358.32 794.874 355.008 792.39 350.96C789.906 346.912 788.664 342.634 788.664 338.126V291.068C788.664 289.32 788.48 287.664 788.112 286.1C787.836 284.444 787.1 283.11 785.904 282.098C784.708 280.994 782.638 280.442 779.694 280.442C778.774 280.442 777.992 280.35 777.348 280.166C776.704 279.982 776.336 279.108 776.244 277.544C776.244 276.808 776.428 276.118 776.796 275.474C777.164 274.83 777.808 274.508 778.728 274.508C781.672 274.6 784.432 274.692 787.008 274.784C789.584 274.876 792.252 274.922 795.012 274.922C800.624 274.922 806.374 274.784 812.262 274.508C813.182 274.508 813.826 274.83 814.194 275.474C814.562 276.118 814.746 276.808 814.746 277.544C814.654 278.924 814.378 279.752 813.918 280.028C813.458 280.304 812.814 280.442 811.986 280.442C808.858 280.442 806.604 280.948 805.224 281.96C803.936 282.88 803.154 284.168 802.878 285.824C802.602 287.388 802.418 289.136 802.326 291.068V334.124C802.326 336.516 802.556 339.046 803.016 341.714C803.568 344.29 804.58 346.728 806.052 349.028C807.524 351.236 809.686 353.076 812.538 354.548C815.482 355.928 819.392 356.618 824.268 356.618C830.524 356.618 835.308 355.606 838.62 353.582C842.024 351.466 844.37 348.844 845.658 345.716C846.946 342.588 847.59 339.368 847.59 336.056V299.762C847.59 293.69 847.36 289.32 846.9 286.652C846.44 283.892 845.428 282.19 843.864 281.546C842.392 280.81 840.092 280.442 836.964 280.442C836.044 280.442 835.262 280.35 834.618 280.166C833.974 279.982 833.606 279.108 833.514 277.544C833.514 276.808 833.698 276.118 834.066 275.474C834.434 274.83 835.078 274.508 835.998 274.508C838.942 274.6 841.564 274.692 843.864 274.784C846.164 274.876 848.694 274.922 851.454 274.922C854.214 274.922 856.744 274.876 859.044 274.784C861.344 274.692 863.966 274.6 866.91 274.508C867.83 274.508 868.474 274.83 868.842 275.474C869.21 276.118 869.394 276.808 869.394 277.544C869.302 278.924 869.026 279.752 868.566 280.028C868.106 280.304 867.462 280.442 866.634 280.442C864.15 280.442 862.126 280.58 860.562 280.856C859.09 281.132 857.94 281.868 857.112 283.064C856.376 284.168 855.87 286.008 855.594 288.584C855.41 291.068 855.318 294.518 855.318 298.934V337.436C855.318 342.312 854.26 346.498 852.144 349.994C850.12 353.49 847.406 356.342 844.002 358.55C840.69 360.666 837.102 362.23 833.238 363.242C829.374 364.254 825.648 364.76 822.06 364.76ZM908.41 364.76C898.842 364.76 891.482 363.104 886.33 359.792C881.178 356.388 878.602 351.42 878.602 344.888C878.602 341.576 879.706 338.862 881.914 336.746C884.214 334.538 887.158 333.434 890.746 333.434C893.138 333.526 894.794 334.124 895.714 335.228C896.726 336.332 897.232 337.16 897.232 337.712C897.232 337.896 896.818 338.218 895.99 338.678C895.162 339.046 894.334 339.782 893.506 340.886C892.678 341.898 892.264 343.508 892.264 345.716C892.264 349.856 893.552 353.168 896.128 355.652C898.704 358.044 902.798 359.24 908.41 359.24C912.366 359.24 915.724 358.504 918.484 357.032C921.336 355.468 923.498 353.49 924.97 351.098C926.442 348.614 927.178 346.084 927.178 343.508C927.178 339.644 926.074 336.47 923.866 333.986C921.658 331.502 918.76 329.386 915.172 327.638C911.676 325.798 907.95 324.05 903.994 322.394C900.038 320.738 896.266 318.852 892.678 316.736C889.182 314.62 886.284 311.998 883.984 308.87C881.684 305.65 880.488 301.648 880.396 296.864C880.304 291.068 881.546 286.376 884.122 282.788C886.698 279.108 890.286 276.44 894.886 274.784C899.486 273.036 904.592 272.162 910.204 272.162C914.344 272.162 918.392 272.76 922.348 273.956C926.396 275.152 929.708 277.038 932.284 279.614C934.952 282.098 936.286 285.41 936.286 289.55C936.286 292.862 935.136 295.622 932.836 297.83C930.628 299.946 927.73 301.004 924.142 301.004C921.75 300.82 920.048 300.222 919.036 299.21C918.116 298.106 917.656 297.278 917.656 296.726C917.656 296.45 918.208 296.128 919.312 295.76C920.416 295.3 921.52 294.564 922.624 293.552C923.728 292.448 924.28 290.838 924.28 288.722C924.28 285.226 922.946 282.558 920.278 280.718C917.61 278.786 914.298 277.82 910.342 277.82C904.362 277.82 899.992 279.246 897.232 282.098C894.564 284.858 893.23 287.986 893.23 291.482C893.23 294.886 894.15 297.646 895.99 299.762C897.83 301.878 900.59 303.948 904.27 305.972C908.41 308.18 912.596 310.25 916.828 312.182C921.06 314.022 924.97 316.092 928.558 318.392C932.238 320.692 935.182 323.59 937.39 327.086C939.598 330.49 940.702 334.906 940.702 340.334C940.702 345.026 939.23 349.212 936.286 352.892C933.434 356.572 929.57 359.47 924.694 361.586C919.818 363.702 914.39 364.76 908.41 364.76ZM953.57 362.414C952.65 362.414 952.006 362.092 951.638 361.448C951.27 360.804 951.086 360.114 951.086 359.378C951.178 357.814 951.546 356.94 952.19 356.756C952.834 356.572 953.616 356.48 954.536 356.48C957.48 356.48 959.55 355.974 960.746 354.962C961.942 353.858 962.678 352.524 962.954 350.96C963.322 349.304 963.506 347.602 963.506 345.854V291.068C963.506 289.32 963.322 287.664 962.954 286.1C962.678 284.444 961.942 283.11 960.746 282.098C959.55 280.994 957.48 280.442 954.536 280.442C953.616 280.442 952.834 280.35 952.19 280.166C951.546 279.982 951.178 279.108 951.086 277.544C951.086 276.808 951.27 276.118 951.638 275.474C952.006 274.83 952.65 274.508 953.57 274.508C956.514 274.6 959.274 274.692 961.85 274.784C964.426 274.876 967.094 274.922 969.854 274.922C975.466 274.922 981.216 274.784 987.104 274.508C988.024 274.508 988.668 274.83 989.036 275.474C989.404 276.118 989.588 276.808 989.588 277.544C989.496 279.108 989.128 279.982 988.484 280.166C987.932 280.35 987.15 280.442 986.138 280.442C983.286 280.442 981.216 280.994 979.928 282.098C978.732 283.11 977.996 284.444 977.72 286.1C977.444 287.664 977.26 289.32 977.168 291.068V315.494H1020.5V291.068C1020.5 289.32 1020.32 287.664 1019.95 286.1C1019.67 284.444 1018.94 283.11 1017.74 282.098C1016.54 280.994 1014.47 280.442 1011.53 280.442C1010.61 280.442 1009.78 280.35 1009.05 280.166C1008.4 279.982 1008.03 279.108 1007.94 277.544C1007.94 276.808 1008.13 276.118 1008.49 275.474C1008.95 274.83 1009.6 274.508 1010.43 274.508C1016.41 274.784 1022.16 274.922 1027.68 274.922C1030.44 274.922 1033.1 274.876 1035.68 274.784C1038.35 274.692 1041.15 274.6 1044.1 274.508C1044.93 274.508 1045.52 274.83 1045.89 275.474C1046.35 276.118 1046.58 276.808 1046.58 277.544C1046.49 279.108 1046.12 279.982 1045.48 280.166C1044.83 280.35 1044.05 280.442 1043.13 280.442C1040.28 280.442 1038.21 280.994 1036.92 282.098C1035.63 283.11 1034.85 284.444 1034.58 286.1C1034.3 287.664 1034.12 289.32 1034.02 291.068V345.854C1034.12 347.602 1034.3 349.304 1034.58 350.96C1034.85 352.524 1035.63 353.858 1036.92 354.962C1038.21 355.974 1040.28 356.48 1043.13 356.48C1044.05 356.48 1044.83 356.572 1045.48 356.756C1046.12 356.94 1046.49 357.814 1046.58 359.378C1046.58 360.114 1046.35 360.804 1045.89 361.448C1045.52 362.092 1044.93 362.414 1044.1 362.414C1041.15 362.23 1038.35 362.092 1035.68 362C1033.01 362 1030.3 362 1027.54 362C1022.11 362 1016.41 362.138 1010.43 362.414C1009.6 362.414 1008.95 362.092 1008.49 361.448C1008.13 360.804 1007.94 360.114 1007.94 359.378C1008.03 357.814 1008.4 356.94 1009.05 356.756C1009.78 356.572 1010.61 356.48 1011.53 356.48C1014.47 356.48 1016.54 355.974 1017.74 354.962C1018.94 353.858 1019.67 352.524 1019.95 350.96C1020.32 349.304 1020.5 347.602 1020.5 345.854V321.428H977.168V345.854C977.26 347.602 977.444 349.304 977.72 350.96C977.996 352.524 978.732 353.858 979.928 354.962C981.216 355.974 983.286 356.48 986.138 356.48C987.15 356.48 987.932 356.572 988.484 356.756C989.128 356.94 989.496 357.814 989.588 359.378C989.588 360.114 989.404 360.804 989.036 361.448C988.668 362.092 988.024 362.414 987.104 362.414C981.216 362.138 975.512 362 969.992 362C967.232 362 964.518 362 961.85 362C959.274 362.092 956.514 362.23 953.57 362.414Z" fill="#CE46E3"/>
<defs>
<clipPath id="clip0_134_46">
<rect width="494" height="579" fill="white" transform="translate(353 26)"/>
</clipPath>
</defs>
</svg>
